<svg width="36" height="60" viewBox="0 0 36 60" fill="none" xmlns="http://www.w3.org/2000/svg">
<path d="M34.3842 26.1153L9.74473 1.65419C7.52306 -0.551397 3.68586 -0.551397 1.66616 1.65419C-0.555388 3.85978 -0.555388 7.46869 1.66616 9.67427L22.0645 30.1254L1.66628 50.376C-0.55527 52.5816 -0.55527 56.1906 1.66628 58.3961C2.67613 59.3986 4.29177 60 5.70544 60C7.11912 60 8.735 59.3986 9.74473 58.3959L34.3842 34.1353C35.3941 33.1328 36 31.5288 36 30.1253C36 28.7218 35.3941 27.1179 34.3842 26.1153ZM31.5568 31.3283L7.11923 55.5891C6.51332 56.1905 5.30162 56.1905 4.69571 55.5891C4.0898 54.9877 4.0898 53.7845 4.69571 53.1831L26.5078 31.5289C27.3156 30.7269 27.3156 29.524 26.5078 28.7219L4.49374 7.06779C3.88783 6.26575 3.88783 5.26322 4.49374 4.66181C4.89768 4.26079 5.30162 4.0604 5.70556 4.0604C6.1095 4.0604 6.51344 4.26079 6.91738 4.66181L31.5569 29.123C31.9608 29.524 32.1627 29.925 32.1627 30.326C31.9607 30.5263 31.7587 31.1279 31.5568 31.3283Z" fill="black"/>
</svg>
