<svg width="68" height="68" viewBox="0 0 68 68" fill="none" xmlns="http://www.w3.org/2000/svg">
<path d="M42.8385 19.6677L8.11913 19.7938C4.98858 19.8052 2.27528 22.5185 2.40672 25.5062C2.39543 28.6367 4.94731 31.1886 8.07777 31.1773L36.9627 31.2146L36.8583 59.9577C36.847 63.0881 39.399 65.6401 42.5294 65.6287C43.9523 65.6235 45.52 64.9064 46.5196 63.9068C47.5193 62.9071 48.2366 61.3393 48.2416 59.9163L48.5095 25.3387C48.5147 23.9157 47.809 22.3531 46.8165 21.3606C45.8241 20.3683 44.2615 19.6625 42.8385 19.6677ZM44.5253 25.3532L44.4003 59.7881C44.3971 60.6418 43.5403 61.4986 42.6866 61.5017C41.8329 61.5049 40.9822 60.6542 40.9854 59.8005L41.097 29.0652C41.1012 27.9268 40.2505 27.0762 39.1122 27.0804L8.23411 27.3348C7.23854 27.1962 6.52964 26.4873 6.53283 25.6336C6.53489 25.0644 6.67883 24.637 6.96445 24.3514C7.25008 24.0658 7.67741 23.9218 8.2466 23.9198L42.966 23.7937C43.5352 23.7916 43.9615 23.9324 44.2451 24.216C44.2439 24.5004 44.5265 25.0686 44.5253 25.3532Z" fill="black"/>
</svg>
