<svg width="68" height="68" viewBox="0 0 68 68" fill="none" xmlns="http://www.w3.org/2000/svg">
<path d="M25.1615 48.3323L59.8809 48.2062C63.0114 48.1948 65.7247 45.4815 65.5933 42.4938C65.6046 39.3633 63.0527 36.8114 59.9222 36.8227L31.0373 36.7854L31.1417 8.04234C31.153 4.91188 28.601 2.35991 25.4706 2.37128C24.0477 2.37645 22.48 3.09362 21.4804 4.09324C20.4807 5.09286 19.7634 6.66071 19.7584 8.08369L19.4905 42.6613C19.4853 44.0843 20.191 45.6469 21.1835 46.6394C22.1759 47.6317 23.7385 48.3375 25.1615 48.3323ZM23.4747 42.6468L23.5997 8.21195C23.6029 7.35825 24.4597 6.50145 25.3134 6.49826C26.1671 6.49508 27.0178 7.34584 27.0146 8.19954L26.903 38.9348C26.8989 40.0732 27.7495 40.9238 28.8878 40.9196L59.7659 40.6652C60.7615 40.8038 61.4704 41.5127 61.4672 42.3664C61.4651 42.9356 61.3212 43.363 61.0356 43.6486C60.7499 43.9342 60.3226 44.0782 59.7534 44.0802L25.034 44.2063C24.4648 44.2084 24.0385 44.0676 23.755 43.784C23.7562 43.4996 23.4735 42.9314 23.4747 42.6468Z" fill="black"/>
</svg>
