<svg width="68" height="68" viewBox="0 0 68 68" fill="none" xmlns="http://www.w3.org/2000/svg">
<path d="M19.6677 25.1615L19.7939 59.8809C19.8052 63.0115 22.5185 65.7248 25.5063 65.5933C28.6367 65.6046 31.1886 63.0527 31.1773 59.9223L31.2146 31.0373L59.9577 31.1417C63.0881 31.153 65.6401 28.6011 65.6287 25.4707C65.6236 24.0477 64.9064 22.48 63.9068 21.4804C62.9072 20.4808 61.3393 19.7634 59.9163 19.7584L25.3387 19.4905C23.9157 19.4854 22.3531 20.1911 21.3607 21.1835C20.3683 22.1759 19.6626 23.7385 19.6677 25.1615ZM25.3532 23.4747L59.7881 23.5997C60.6418 23.6029 61.4986 24.4597 61.5018 25.3134C61.5049 26.1671 60.6542 27.0179 59.8005 27.0147L29.0652 26.903C27.9268 26.8989 27.0762 27.7495 27.0804 28.8879L27.3348 59.7659C27.1962 60.7615 26.4873 61.4704 25.6336 61.4672C25.0644 61.4651 24.637 61.3212 24.3514 61.0356C24.0658 60.75 23.9219 60.3226 23.9198 59.7534L23.7937 25.034C23.7916 24.4648 23.9324 24.0385 24.216 23.755C24.5004 23.7562 25.0687 23.4736 25.3532 23.4747Z" fill="black"/>
</svg>
