<svg width="68" height="68" viewBox="0 0 68 68" fill="none" xmlns="http://www.w3.org/2000/svg">
<path d="M48.3323 42.8385L48.2062 8.11912C48.1948 4.98858 45.4815 2.27527 42.4937 2.40671C39.3633 2.39542 36.8114 4.94731 36.8227 8.07777L36.7854 36.9627L8.04233 36.8583C4.91187 36.847 2.3599 39.399 2.37127 42.5294C2.37644 43.9523 3.09361 45.52 4.09323 46.5196C5.09285 47.5193 6.66071 48.2366 8.08368 48.2416L42.6613 48.5095C44.0843 48.5147 45.6469 47.809 46.6393 46.8165C47.6317 45.8241 48.3374 44.2615 48.3323 42.8385ZM42.6468 44.5253L8.21194 44.4003C7.35824 44.3971 6.50144 43.5403 6.49825 42.6866C6.49507 41.8329 7.34583 40.9822 8.19953 40.9854L38.9348 41.097C40.0732 41.1011 40.9238 40.2505 40.9196 39.1122L40.6652 8.2341C40.8038 7.23854 41.5127 6.52964 42.3664 6.53282C42.9356 6.53489 43.363 6.67882 43.6486 6.96445C43.9342 7.25008 44.0781 7.6774 44.0802 8.24659L44.2063 42.966C44.2084 43.5352 44.0676 43.9615 43.784 44.245C43.4996 44.2438 42.9313 44.5265 42.6468 44.5253Z" fill="black"/>
</svg>
