<svg width="36" height="60" viewBox="0 0 36 60" fill="none" xmlns="http://www.w3.org/2000/svg">
<path d="M1.61576 33.8847L26.2553 58.3458C28.4769 60.5514 32.3141 60.5514 34.3338 58.3458C36.5554 56.1402 36.5554 52.5313 34.3338 50.3257L13.9355 29.8746L34.3337 9.62403C36.5553 7.41844 36.5553 3.80942 34.3337 1.60395C33.3239 0.601406 31.7082 -1.90733e-06 30.2946 -1.90733e-06C28.8809 -1.90733e-06 27.265 0.601403 26.2553 1.60406L1.61576 25.8647C0.605913 26.8672 1.11192e-06 28.4712 1.11192e-06 29.8747C1.11192e-06 31.2782 0.605913 32.8821 1.61576 33.8847ZM4.44323 28.6717L28.8808 4.41094C29.4867 3.80953 30.6984 3.80953 31.3043 4.41094C31.9102 5.01235 31.9102 6.21551 31.3043 6.81691L9.49224 28.4711C8.68436 29.2731 8.68436 30.476 9.49224 31.2781L31.5063 52.9322C32.1122 53.7342 32.1122 54.7368 31.5063 55.3382C31.1023 55.7392 30.6984 55.9396 30.2944 55.9396C29.8905 55.9396 29.4866 55.7392 29.0826 55.3382L4.44311 30.877C4.03917 30.476 3.83731 30.075 3.83731 29.674C4.03928 29.4737 4.24126 28.8721 4.44323 28.6717Z" fill="black"/>
</svg>
