<svg width="60" height="36" viewBox="0 0 60 36" fill="none" xmlns="http://www.w3.org/2000/svg">
<path d="M26.1153 1.61576L1.65419 26.2553C-0.551397 28.4769 -0.551397 32.3141 1.65419 34.3338C3.85978 36.5554 7.46869 36.5554 9.67427 34.3338L30.1254 13.9355L50.376 34.3337C52.5816 36.5553 56.1906 36.5553 58.3961 34.3337C59.3986 33.3239 60 31.7082 60 30.2946C60 28.8809 59.3986 27.265 58.3959 26.2553L34.1353 1.61576C33.1328 0.605913 31.5288 1.11192e-06 30.1253 1.11192e-06C28.7218 1.11192e-06 27.1179 0.605913 26.1153 1.61576ZM31.3283 4.44323L55.5891 28.8808C56.1905 29.4867 56.1905 30.6984 55.5891 31.3043C54.9877 31.9102 53.7845 31.9102 53.1831 31.3043L31.5289 9.49224C30.7269 8.68436 29.524 8.68436 28.7219 9.49224L7.06779 31.5063C6.26575 32.1122 5.26322 32.1122 4.66181 31.5063C4.26079 31.1023 4.0604 30.6984 4.0604 30.2944C4.0604 29.8905 4.26079 29.4866 4.66181 29.0826L29.123 4.44311C29.524 4.03917 29.925 3.83731 30.326 3.83731C30.5263 4.03928 31.1279 4.24126 31.3283 4.44323Z" fill="black"/>
</svg>
