<svg width="60" height="36" viewBox="0 0 60 36" fill="none" xmlns="http://www.w3.org/2000/svg">
<path d="M33.8847 34.3842L58.3458 9.74473C60.5514 7.52306 60.5514 3.68586 58.3458 1.66616C56.1402 -0.555388 52.5313 -0.555388 50.3257 1.66616L29.8746 22.0645L9.62402 1.66628C7.41844 -0.55527 3.80941 -0.55527 1.60394 1.66628C0.601404 2.67613 -3.81468e-06 4.29177 -3.81468e-06 5.70544C-3.81468e-06 7.11912 0.601401 8.735 1.60406 9.74473L25.8647 34.3842C26.8672 35.3941 28.4712 36 29.8747 36C31.2782 36 32.8821 35.3941 33.8847 34.3842ZM28.6717 31.5568L4.41094 7.11923C3.80953 6.51332 3.80953 5.30162 4.41094 4.69571C5.01234 4.0898 6.21551 4.0898 6.81691 4.69571L28.4711 26.5078C29.2731 27.3156 30.476 27.3156 31.2781 26.5078L52.9322 4.49374C53.7342 3.88783 54.7368 3.88783 55.3382 4.49374C55.7392 4.89768 55.9396 5.30162 55.9396 5.70556C55.9396 6.1095 55.7392 6.51344 55.3382 6.91738L30.877 31.5569C30.476 31.9608 30.075 32.1627 29.674 32.1627C29.4737 31.9607 28.8721 31.7587 28.6717 31.5568Z" fill="black"/>
</svg>
