<?xml version="1.0" encoding="utf-8"?>
<!-- Generator: Adobe Illustrator 25.2.3, SVG Export Plug-In . SVG Version: 6.00 Build 0)  -->
<svg version="1.1" id="Слой_1" xmlns="http://www.w3.org/2000/svg" xmlns:xlink="http://www.w3.org/1999/xlink" x="0px" y="0px"
	 viewBox="0 0 512 512" style="enable-background:new 0 0 512 512;" xml:space="preserve">
<style type="text/css">
	.st0{fill:#3FAB35;}
	.st1{fill:#8DD3F6;}
	.st2{fill:#EA4D4A;}
	.st3{fill:#849399;}
	.st4{fill:#DDDC12;}
	.st5{fill:#5EC4E6;}
</style>
<g id="_x30_28---Image-Filters">
	<g id="XMLID_1_">
		<g>
			<path class="st0" d="M260.3,366.9c9.4,0,17.1,7.6,17.1,17.1s-7.6,17.1-17.1,17.1c-9.4,0-17.1-7.6-17.1-17.1
				S250.8,366.9,260.3,366.9z"/>
			<path class="st0" d="M413.9,366.9c9.4,0,17.1,7.6,17.1,17.1s-7.6,17.1-17.1,17.1c-9.4,0-17.1-7.6-17.1-17.1
				S404.4,366.9,413.9,366.9z"/>
			<path class="st0" d="M337.1,298.7c9.4,0,17.1,7.6,17.1,17.1c0,9.4-7.6,17.1-17.1,17.1c-9.4,0-17.1-7.6-17.1-17.1
				C320,306.3,327.6,298.7,337.1,298.7z"/>
			<path class="st1" d="M337.1,204.8c80.1,0,145.1,64.9,145.1,145.1c-0.1,80.1-65,145-145.1,145.1C257,494.9,192,430,192,349.9
				C192,269.8,257,204.8,337.1,204.8z M448,384c0-15.5-10.5-29.1-25.6-32.9v-78c0-4.7-3.8-8.5-8.5-8.5c-4.7,0-8.5,3.8-8.5,8.5v78
				c-15,3.8-25.6,17.4-25.6,32.9s10.5,29.1,25.6,32.9v9.8c0,4.7,3.8,8.5,8.5,8.5c4.7,0,8.5-3.8,8.5-8.5v-9.8
				C437.5,413.1,448,399.5,448,384z M371.2,315.7c0-15.5-10.5-29.1-25.6-32.9v-9.7c0-4.7-3.8-8.5-8.5-8.5c-4.7,0-8.5,3.8-8.5,8.5
				v9.7c-15,3.8-25.6,17.4-25.6,32.9c0,15.5,10.5,29.1,25.6,32.9v78c0,4.7,3.8,8.5,8.5,8.5c4.7,0,8.5-3.8,8.5-8.5v-78
				C360.6,344.8,371.2,331.3,371.2,315.7z M294.4,384c0-15.5-10.5-29.1-25.6-32.9v-78c0-4.7-3.8-8.5-8.5-8.5c-4.7,0-8.5,3.8-8.5,8.5
				v78c-15.1,3.8-25.6,17.4-25.6,32.9s10.5,29.1,25.6,32.9v9.8c0,4.7,3.8,8.5,8.5,8.5c4.7,0,8.5-3.8,8.5-8.5v-9.8
				C283.9,413.1,294.4,399.5,294.4,384z"/>
			<path class="st2" d="M456.5,76.8v163.8c-5.3-5.9-11-11.3-17.1-16.3V76.8c0-23.6-19.1-42.6-42.7-42.7H89.6
				c-23.5,0-42.6,19.1-42.7,42.7v238.9c0,23.6,19.1,42.6,42.7,42.7h85.8c1.7,34.3,14.4,67.2,36.1,93.9h-36.6c-4.7,0-8.5,3.8-8.5,8.5
				c0,4.7,3.8,8.5,8.5,8.5h52.9c11.2,10.2,23.7,18.9,37.3,25.6H89.6c-33,0-59.7-26.8-59.7-59.7V76.8c0-33,26.8-59.7,59.7-59.7h307.2
				C429.8,17.1,456.5,43.8,456.5,76.8z M132.3,460.8c0-4.7-3.8-8.5-8.5-8.5H98.1c-4.7,0-8.5,3.8-8.5,8.5c0,4.7,3.8,8.5,8.5,8.5h25.6
				C128.4,469.3,132.3,465.5,132.3,460.8z"/>
			<path class="st3" d="M422.4,199.8v12.5c-48.6-30.4-109.7-32.7-160.4-6.2c-50.8,26.5-83.7,78-86.6,135.2H89.6
				c-14.1,0-25.6-11.5-25.6-25.6v-13.5l89.6-89.6l17.8,17.8c6.7,6.7,17.5,6.7,24.1,0l128.7-128.7L422.4,199.8z"/>
			<circle class="st4" cx="132.3" cy="119.5" r="25.6"/>
			<path class="st5" d="M422.4,76.8v98.9l-86.1-86.1c-6.7-6.7-17.5-6.7-24.1,0L183.5,218.3l-17.8-17.8c-6.8-6.4-17.4-6.4-24.1,0
				L64,278.1V76.8c0-14.1,11.5-25.6,25.6-25.6h307.2C410.9,51.2,422.4,62.7,422.4,76.8z M132.3,162.1c23.6,0,42.7-19.1,42.7-42.7
				c0-23.6-19.1-42.6-42.7-42.7c-23.6,0-42.7,19.1-42.7,42.7C89.6,143,108.7,162.1,132.3,162.1z"/>
			<path d="M473.6,262.8c32,49.9,34.1,113.2,5.7,165.1c-28.5,51.9-83,84.2-142.2,84.1H89.6c-42.4,0-76.8-34.4-76.8-76.8V76.8
				C12.9,34.4,47.2,0.1,89.6,0h307.2c42.4,0.1,76.8,34.4,76.8,76.8V262.8z M456.5,240.6V76.8c0-33-26.8-59.7-59.7-59.7H89.6
				c-33,0-59.7,26.8-59.7,59.7v358.4c0,33,26.8,59.7,59.7,59.7h175.5c-13.6-6.8-26.1-15.4-37.3-25.6h-52.9c-4.7,0-8.5-3.8-8.5-8.5
				c0-4.7,3.8-8.5,8.5-8.5h36.6c-21.7-26.6-34.4-59.5-36.1-93.9H89.6c-23.5,0-42.6-19.1-42.7-42.7V76.8c0-23.6,19.1-42.6,42.7-42.7
				h307.2c23.6,0,42.6,19.1,42.7,42.7v147.5C445.5,229.3,451.2,234.8,456.5,240.6z M482.1,349.9c0-80.1-65-145.1-145.1-145.1
				C257,204.8,192,269.8,192,349.9c0,80.1,65,145.1,145.1,145.1C417.1,494.8,482,430,482.1,349.9z M422.4,212.3v-12.5l-98.1-98.1
				L195.5,230.4c-6.7,6.7-17.5,6.7-24.1,0l-17.8-17.8L64,302.2v13.5c0,14.1,11.5,25.6,25.6,25.6h85.8
				c2.8-57.2,35.8-108.7,86.6-135.2C312.7,179.6,373.8,181.9,422.4,212.3z M422.4,175.7V76.8c0-14.1-11.5-25.6-25.6-25.6H89.6
				C75.5,51.2,64,62.7,64,76.8v201.3l77.5-77.5c6.8-6.4,17.4-6.4,24.1,0l17.8,17.8L312.2,89.6c6.7-6.7,17.5-6.7,24.1,0L422.4,175.7z
				"/>
			<path d="M422.4,351.1c15.1,3.8,25.6,17.4,25.6,32.9s-10.5,29.1-25.6,32.9v9.8c0,4.7-3.8,8.5-8.5,8.5c-4.7,0-8.5-3.8-8.5-8.5v-9.8
				c-15-3.8-25.6-17.4-25.6-32.9s10.5-29.1,25.6-32.9v-78c0-4.7,3.8-8.5,8.5-8.5c4.7,0,8.5,3.8,8.5,8.5V351.1z M430.9,384
				c0-9.4-7.6-17.1-17.1-17.1c-9.4,0-17.1,7.6-17.1,17.1s7.6,17.1,17.1,17.1C423.3,401.1,430.9,393.4,430.9,384z"/>
			<path d="M345.6,282.8c15,3.8,25.6,17.4,25.6,32.9c0,15.5-10.5,29.1-25.6,32.9v78c0,4.7-3.8,8.5-8.5,8.5c-4.7,0-8.5-3.8-8.5-8.5
				v-78c-15-3.8-25.6-17.4-25.6-32.9c0-15.5,10.5-29.1,25.6-32.9v-9.7c0-4.7,3.8-8.5,8.5-8.5c4.7,0,8.5,3.8,8.5,8.5V282.8z
				 M354.1,315.7c0-9.4-7.6-17.1-17.1-17.1c-9.4,0-17.1,7.6-17.1,17.1c0,9.4,7.6,17.1,17.1,17.1
				C346.5,332.8,354.1,325.2,354.1,315.7z"/>
			<path d="M268.8,351.1c15.1,3.8,25.6,17.4,25.6,32.9s-10.5,29.1-25.6,32.9v9.8c0,4.7-3.8,8.5-8.5,8.5c-4.7,0-8.5-3.8-8.5-8.5v-9.8
				c-15.1-3.8-25.6-17.4-25.6-32.9s10.5-29.1,25.6-32.9v-78c0-4.7,3.8-8.5,8.5-8.5c4.7,0,8.5,3.8,8.5,8.5V351.1z M277.3,384
				c0-9.4-7.6-17.1-17.1-17.1c-9.4,0-17.1,7.6-17.1,17.1s7.6,17.1,17.1,17.1C269.7,401.1,277.3,393.4,277.3,384z"/>
			<path d="M174.9,119.5c0,23.6-19.1,42.7-42.7,42.7c-23.6,0-42.7-19.1-42.7-42.7c0-23.6,19.1-42.7,42.7-42.7
				C155.8,76.8,174.9,95.9,174.9,119.5z M157.9,119.5c0-14.1-11.5-25.6-25.6-25.6s-25.6,11.5-25.6,25.6s11.5,25.6,25.6,25.6
				S157.9,133.6,157.9,119.5z"/>
			<path d="M123.7,452.3c4.7,0,8.5,3.8,8.5,8.5c0,4.7-3.8,8.5-8.5,8.5H98.1c-4.7,0-8.5-3.8-8.5-8.5c0-4.7,3.8-8.5,8.5-8.5H123.7z"/>
		</g>
		<g>
		</g>
	</g>
</g>
</svg>
