<svg id="Capa_1" enable-background="new 0 0 512 512" height="512" viewBox="0 0 512 512" width="512" xmlns="http://www.w3.org/2000/svg"><g><g><g><g><path d="m504.5 78.01v355.98c0 5.52-4.48 10-10 10h-477c-5.52 0-10-4.48-10-10v-355.98c0-5.52 4.48-10 10-10h477c5.52 0 10 4.48 10 10z" fill="#e8e6ed"/><path d="m504.5 78.01v355.98c0 5.52-4.48 10-10 10h-119.78c110.64-95.77 108.18-318.45 105.57-375.98h14.21c5.52 0 10 4.48 10 10z" fill="#d1d0d8"/><path d="m504.5 78.01v53.03h-497v-53.03c0-5.52 4.48-10 10-10h477c5.52 0 10 4.48 10 10z" fill="#d1d0d8"/><path d="m504.5 78.01v53.03h-23.83c.82-27.46.23-49.69-.38-63.03h14.21c5.52 0 10 4.48 10 10z" fill="#aaaab2"/></g><path d="m201.73 182.05v128.19c0 5.523-4.477 10-10 10h-128.19c-5.523 0-10-4.477-10-10v-128.19c0-5.523 4.477-10 10-10h128.19c5.523 0 10 4.477 10 10z" fill="#26e4ff"/><path d="m201.73 182.05v128.19c0 5.523-4.477 10-10 10h-87.48c67.15-40.58 67.05-117.34 63.96-148.19h23.52c5.523 0 10 4.477 10 10z" fill="#22d0ff"/><path d="m201.73 353.28v41.33c0 5.523-4.477 10-10 10h-128.19c-5.523 0-10-4.477-10-10v-41.33c0-5.523 4.477-10 10-10h128.19c5.523 0 10 4.477 10 10z" fill="#ffb800"/><path d="m201.73 353.28v41.33c0 5.523-4.477 10-10 10h-46.69c19.84-18.1 31.12-40.03 37.31-61.33h9.38c5.523 0 10 4.477 10 10z" fill="#ff9700"/><path d="m448.36 182.05v32.92c0 5.523-4.477 10-10 10h-95.75c-5.523 0-10-4.477-10-10v-32.92c0-5.523 4.477-10 10-10h95.75c5.523 0 10 4.477 10 10z" fill="#ab8eff"/><path d="m448.36 182.05v32.92c0 5.523-4.477 10-10 10h-39.62c17.94-15.57 29.22-34.21 36.16-52.92h3.46c5.523 0 10 4.477 10 10z" fill="#8f67ff"/><path d="m448.36 258.31v136.3c0 5.523-4.477 10-10 10h-95.75c-5.523 0-10-4.477-10-10v-136.3c0-5.523 4.477-10 10-10h95.75c5.523 0 10 4.477 10 10z" fill="#2fd92d"/><path d="m448.36 258.31v136.3c0 5.523-4.477 10-10 10h-71.11c51.07-42.89 53.48-118.91 51.15-156.3h19.96c5.523 0 10 4.477 10 10z" fill="#1fbf33"/><g><path d="m309.07 182.05v212.56c0 5.523-4.477 10-10 10h-63.15c-5.523 0-10-4.477-10-10v-212.56c0-5.523 4.477-10 10-10h63.15c5.523 0 10 4.477 10 10z" fill="#ff5677"/><path d="m309.07 182.05v212.56c0 5.523-4.477 10-10 10h-54.23c49.22-67.68 49.9-192.91 48.77-232.56h5.46c5.523 0 10 4.477 10 10z" fill="#ff2953"/></g></g></g><g><path d="m494.5 60.514h-168.178c-4.143 0-7.5 3.358-7.5 7.5s3.357 7.5 7.5 7.5h168.178c1.379 0 2.5 1.122 2.5 2.5v45.527h-482v-45.527c0-1.378 1.121-2.5 2.5-2.5h274.3c4.143 0 7.5-3.358 7.5-7.5s-3.357-7.5-7.5-7.5h-274.3c-9.649 0-17.5 7.851-17.5 17.5v355.973c0 9.649 7.851 17.5 17.5 17.5h361.295c4.143 0 7.5-3.358 7.5-7.5s-3.357-7.5-7.5-7.5h-361.295c-1.379 0-2.5-1.122-2.5-2.5v-295.446h482v295.446c0 1.378-1.121 2.5-2.5 2.5h-81.182c-4.143 0-7.5 3.358-7.5 7.5s3.357 7.5 7.5 7.5h81.182c9.649 0 17.5-7.851 17.5-17.5v-355.973c0-9.65-7.851-17.5-17.5-17.5z"/><path d="m47.433 92.027c-4.143 0-7.5 3.358-7.5 7.5s3.357 7.5 7.5 7.5h.113c4.143 0 7.5-3.358 7.5-7.5s-3.357-7.5-7.5-7.5z"/><path d="m70.076 92.027c-4.143 0-7.5 3.358-7.5 7.5s3.357 7.5 7.5 7.5h.112c4.143 0 7.5-3.358 7.5-7.5s-3.357-7.5-7.5-7.5z"/><path d="m92.72 92.027c-4.143 0-7.5 3.358-7.5 7.5s3.357 7.5 7.5 7.5h.112c4.143 0 7.5-3.358 7.5-7.5s-3.357-7.5-7.5-7.5z"/><path d="m464.567 107.027c4.143 0 7.5-3.358 7.5-7.5s-3.357-7.5-7.5-7.5h-13.956c-4.143 0-7.5 3.358-7.5 7.5s3.357 7.5 7.5 7.5z"/><path d="m209.229 182.046c0-9.649-7.851-17.5-17.5-17.5h-128.194c-9.649 0-17.5 7.851-17.5 17.5v60.376c0 4.142 3.357 7.5 7.5 7.5s7.5-3.358 7.5-7.5v-60.376c0-1.378 1.121-2.5 2.5-2.5h128.193c1.379 0 2.5 1.122 2.5 2.5v128.192c0 1.378-1.121 2.5-2.5 2.5h-128.193c-1.379 0-2.5-1.122-2.5-2.5v-33.293c0-4.142-3.357-7.5-7.5-7.5s-7.5 3.358-7.5 7.5v33.293c0 9.649 7.851 17.5 17.5 17.5h128.193c9.649 0 17.5-7.851 17.5-17.5v-128.192z"/><path d="m191.728 335.784h-128.192c-9.649 0-17.5 7.851-17.5 17.5v41.326c0 9.649 7.851 17.5 17.5 17.5h128.191c9.649 0 17.5-7.851 17.5-17.5v-41.326c.001-9.65-7.85-17.5-17.499-17.5zm2.5 58.825c0 1.378-1.121 2.5-2.5 2.5h-128.192c-1.379 0-2.5-1.122-2.5-2.5v-41.326c0-1.378 1.121-2.5 2.5-2.5h128.191c1.379 0 2.5 1.122 2.5 2.5v41.326z"/><path d="m235.916 164.546c-9.649 0-17.5 7.851-17.5 17.5v212.563c0 9.649 7.851 17.5 17.5 17.5h63.153c9.649 0 17.5-7.851 17.5-17.5v-212.563c0-9.649-7.851-17.5-17.5-17.5zm65.653 17.5v212.563c0 1.378-1.121 2.5-2.5 2.5h-63.153c-1.379 0-2.5-1.122-2.5-2.5v-212.563c0-1.378 1.121-2.5 2.5-2.5h63.153c1.379 0 2.5 1.121 2.5 2.5z"/><path d="m342.606 232.47h95.751c9.649 0 17.5-7.851 17.5-17.5v-32.924c0-9.649-7.851-17.5-17.5-17.5h-95.751c-9.649 0-17.5 7.851-17.5 17.5v32.924c0 9.649 7.851 17.5 17.5 17.5zm-2.5-50.424c0-1.378 1.121-2.5 2.5-2.5h95.751c1.379 0 2.5 1.122 2.5 2.5v32.924c0 1.378-1.121 2.5-2.5 2.5h-95.751c-1.379 0-2.5-1.122-2.5-2.5z"/><path d="m325.106 394.609c0 9.649 7.851 17.5 17.5 17.5h95.751c9.649 0 17.5-7.851 17.5-17.5v-136.301c0-9.649-7.851-17.5-17.5-17.5h-95.751c-9.649 0-17.5 7.851-17.5 17.5zm15-136.301c0-1.378 1.121-2.5 2.5-2.5h95.751c1.379 0 2.5 1.122 2.5 2.5v136.301c0 1.378-1.121 2.5-2.5 2.5h-95.751c-1.379 0-2.5-1.122-2.5-2.5z"/></g></g></svg>