<?xml version="1.0" encoding="utf-8"?>
<!-- Generator: Adobe Illustrator 25.2.3, SVG Export Plug-In . SVG Version: 6.00 Build 0)  -->
<svg version="1.1" id="Слой_1" xmlns="http://www.w3.org/2000/svg" xmlns:xlink="http://www.w3.org/1999/xlink" x="0px" y="0px"
	 viewBox="0 0 512 512" style="enable-background:new 0 0 512 512;" xml:space="preserve">
<style type="text/css">
	.st0{fill:#FFFFFF;}
</style>
<g id="XMLID_1_">
	<g>
		<path class="st0" d="M482,257c0,97.8-63.7,181.2-151,211.8v-61.5c0-17.1-3.6-28.5-8.4-36.9c45.6-12.3,78-39.3,92.4-78
			c15.3-40.8,8.4-89.4-17.1-123c4.5-20.1,4.5-52.2-6.3-67.2c-4.8-6.6-11.4-10.2-19.8-10.2c-0.3,0-0.3,0-0.3,0
			c-23.3,1.3-41.6,13-61.2,24.9c-18-4.8-36.3-7.2-54.6-7.2c-18.6,0-37.2,2.7-53.7,7.2c-20.7-12.5-38.8-23.7-62.7-24.9
			c-7.5,0-14.1,3.6-18.9,10.2c-10.8,15-10.8,47.1-6.3,67.2C88.6,203,81.7,251.9,97,292.4c14.4,38.7,46.8,65.7,92.4,78
			c-3.7,6.5-6.7,14.9-7.8,26.3c-9.2,3.2-17.2,4.2-24.6,2c-7.8-2.3-13.9-7.5-19.2-16.5c-11.9-20-32.2-36.3-55.3-34.2l2.6,29.9
			c10.7-1,21.4,10.3,26.9,19.7c9.1,15.4,21.4,25.4,36.5,29.9c11.2,3.3,21.5,3.2,32.6,0.9v40.4C93.7,438.2,30,354.8,30,257
			C30,132.8,131.8,30,256,30S482,132.8,482,257z"/>
		<path class="st0" d="M371.2,184.1c21.6,25.5,27.9,65.7,15.9,97.8c-9.3,24-32.7,54.9-92.1,63.6l-23.1,3.6
			c14.2,21.4,15.6,23.9,18.6,27.3c6,8.1,10.5,14.1,10.5,30.9v70.2c-14.4,3-29.7,4.5-45,4.5s-30.6-1.5-45-4.5v-70.2
			c0-16.8,4.5-22.8,10.5-30.9c3.1-3.5,4.9-6.6,18.6-27.3l-23.1-3.6c-59.4-8.7-82.8-39.6-92.1-63.6c-12-32.1-5.7-72.3,15.9-97.8
			c3.3-3.9,6-10.5,3.6-17.4c-4.5-13.8-3.9-35.7-0.9-44.1c15.9,2.3,32.3,13.7,45.9,21.9c6.3,3.7,9.6,2.7,12.6,3
			c11-2.3,28.1-7.8,54.3-7.8c16.2,0,33.3,2.4,50.1,7.2c3-0.1,7.8,2.5,16.2-2.4c14.3-8.7,30.1-19.7,45.9-21.9
			c3,8.4,3.6,30.3-0.9,44.1C365.2,173.6,367.9,180.2,371.2,184.1z"/>
		<path d="M512,257c0,140-114.4,255-256,255C114.2,512,0,396.9,0,257C0,116.3,115.3,0,256,0S512,116.3,512,257z M331,468.8
			c87.3-30.6,151-114,151-211.8c0-124.2-101.8-227-226-227S30,132.8,30,257c0,97.8,63.7,181.2,151,211.8v-40.4
			c-11.1,2.4-21.3,2.4-32.6-0.9c-15.1-4.5-27.4-14.6-36.5-29.9c-5.5-9.3-16.2-20.7-26.9-19.7L82.4,348c23.1-2.1,43.4,14.2,55.3,34.2
			c5.3,8.9,11.4,14.2,19.2,16.5c7.4,2.2,15.4,1.1,24.6-2c1.2-11.4,4.1-19.8,7.8-26.3c-45.6-12.3-78-39.3-92.4-78
			c-15.3-40.5-8.4-89.4,17.1-123c-4.5-20.1-4.5-52.2,6.3-67.2c4.8-6.6,11.4-10.2,18.9-10.2c23.9,1.2,42,12.4,62.7,24.9
			c16.5-4.5,35.1-7.2,53.7-7.2c18.3,0,36.6,2.4,54.6,7.2c19.6-11.9,37.9-23.6,61.2-24.9c0,0,0,0,0.3,0c8.4,0,15,3.6,19.8,10.2
			c10.8,15,10.8,47.1,6.3,67.2c25.5,33.6,32.4,82.2,17.1,123c-14.4,38.7-46.8,65.7-92.4,78c4.8,8.4,8.4,19.8,8.4,36.9V468.8z
			 M387.1,281.9c12-32.1,5.7-72.3-15.9-97.8c-3.3-3.9-6-10.5-3.6-17.4c4.5-13.8,3.9-35.7,0.9-44.1c-15.8,2.2-31.6,13.2-45.9,21.9
			c-8.4,4.9-13.2,2.3-16.2,2.4c-16.8-4.8-33.9-7.2-50.1-7.2c-26.2,0-43.3,5.5-54.3,7.8c-3-0.3-6.3,0.7-12.6-3
			c-13.6-8.2-30-19.6-45.9-21.9c-3,8.4-3.6,30.3,0.9,44.1c2.4,6.9-0.3,13.5-3.6,17.4c-21.6,25.5-27.9,65.7-15.9,97.8
			c9.3,24,32.7,54.9,92.1,63.6l23.1,3.6c-13.7,20.7-15.6,23.8-18.6,27.3c-6,8.1-10.5,14.1-10.5,30.9v70.2c14.4,3,29.7,4.5,45,4.5
			s30.6-1.5,45-4.5v-70.2c0-16.8-4.5-22.8-10.5-30.9c-3-3.4-4.4-5.9-18.6-27.3l23.1-3.6C354.4,336.8,377.8,305.9,387.1,281.9z"/>
	</g>
	<g>
	</g>
</g>
</svg>
