<svg id="Capa_1" enable-background="new 0 0 512 512" height="512" viewBox="0 0 512 512" width="512" xmlns="http://www.w3.org/2000/svg"><g><g><path d="m39.809 30h442.191v442.191h-442.191z" fill="#f9f8f9"/><path d="m482 465v17h-452v-452h18v435z" fill="#e8e8e8"/><g><path d="m92 173.277-.106-76.191c0-2.761 2.239-5 5-5l8.106-2.086h70c2.761 0 5 2.239 5 5v70l-.766 8.234c0 2.761-2.239 5-5 5l-77.234.043c-2.761 0-5-2.239-5-5z" fill="#ff7d91"/><path d="m180 165v10c0 2.761-2.239 5-5 5h-80c-2.761 0-5-2.239-5-5v-80c0-2.761 2.239-5 5-5h10v65c0 5.523 4.477 10 10 10z" fill="#e15f78"/></g><g><path d="m92 413.277-.106-76.191c0-2.761 2.239-5 5-5l8.106-2.086h70c2.761 0 5 2.239 5 5v70l-.766 8.234c0 2.761-2.239 5-5 5l-77.234.043c-2.761 0-5-2.239-5-5z" fill="#8ce1a4"/><path d="m180 405v10c0 2.761-2.239 5-5 5h-80c-2.761 0-5-2.239-5-5v-80c0-2.761 2.239-5 5-5h10v65c0 5.523 4.477 10 10 10z" fill="#80d696"/></g><g><path d="m213.947 413.277-.106-76.191c0-2.761 2.239-5 5-5l8.106-2.085h70c2.761 0 5 2.239 5 5v70l-.766 8.234c0 2.761-2.239 5-5 5l-77.234.043c-2.762-.001-5-2.24-5-5.001z" fill="#c3aff0"/><path d="m301.947 405v10c0 2.761-2.239 5-5 5h-80c-2.761 0-5-2.239-5-5v-80c0-2.761 2.239-5 5-5h10v65c0 5.523 4.477 10 10 10z" fill="#ad96ed"/></g><g><path d="m334 413.277-.106-76.191c0-2.761 2.239-5 5-5l8.106-2.086h70c2.761 0 5 2.239 5 5v70l-.766 8.234c0 2.761-2.239 5-5 5l-77.234.043c-2.761 0-5-2.239-5-5z" fill="#ffe07d"/><path d="m422 405v10c0 2.761-2.239 5-5 5h-80c-2.761 0-5-2.239-5-5v-80c0-2.761 2.239-5 5-5h10v65c0 5.523 4.477 10 10 10z" fill="#ffd064"/></g><g><path d="m212 173.277-.106-76.191c0-2.761 2.239-5 5-5l8.106-2.086h192c2.761 0 5 2.239 5 5v70l-.766 8.234c0 2.761-2.239 5-5 5l-199.234.043c-2.761 0-5-2.239-5-5z" fill="#bde4ff"/><path d="m422 165v10c0 2.761-2.239 5-5 5h-202c-2.761 0-5-2.239-5-5v-80c0-2.761 2.239-5 5-5h10v65c0 5.523 4.477 10 10 10z" fill="#99dbff"/></g><g><path d="m92 293.277-.106-76.191c0-2.761 2.239-5 5-5l8.106-2.086h312c2.761 0 5 2.239 5 5v70l-.766 8.234c0 2.761-2.239 5-5 5l-319.234.043c-2.761 0-5-2.239-5-5z" fill="#ffa95f"/><path d="m422 285v10c0 2.761-2.239 5-5 5h-322c-2.761 0-5-2.239-5-5v-80c0-2.761 2.239-5 5-5h10v65c0 5.523 4.477 10 10 10z" fill="#ff9161"/></g><g><path d="m466.596 49.702 31.638 1.106c2.761 0 5-2.239 5-5l1.266-6.308v-27c0-2.761-2.239-5-5-5h-27l-6.67 2.245c-2.761 0-5 2.239-5 5l.766 29.957c0 2.762 2.238 5 5 5z" fill="#857e87"/><path d="m504.5 39.5v8c0 2.76-2.24 5-5 5h-35c-2.76 0-5-2.24-5-5v-35c0-2.76 2.24-5 5-5h8v22c0 5.52 4.48 10 10 10z" fill="#6f6571"/></g><g><path d="m14.596 49.702 31.638 1.106c2.761 0 5-2.239 5-5l1.266-6.308v-27c0-2.761-2.239-5-5-5h-27l-6.67 2.245c-2.761 0-5 2.239-5 5l.766 29.957c0 2.762 2.238 5 5 5z" fill="#857e87"/><path d="m52.5 39.5v8c0 2.76-2.24 5-5 5h-35c-2.76 0-5-2.24-5-5v-35c0-2.76 2.24-5 5-5h8v22c0 5.52 4.48 10 10 10z" fill="#6f6571"/></g><g><path d="m14.596 501.702 31.638 1.106c2.761 0 5-2.239 5-5l1.266-6.308v-27c0-2.761-2.239-5-5-5h-27l-6.67 2.245c-2.761 0-5 2.239-5 5l.766 29.957c0 2.762 2.238 5 5 5z" fill="#857e87"/><path d="m52.5 491.5v8c0 2.76-2.24 5-5 5h-35c-2.76 0-5-2.24-5-5v-35c0-2.76 2.24-5 5-5h8v22c0 5.52 4.48 10 10 10z" fill="#6f6571"/></g><g><path d="m467.261 501.702 31.638 1.106c2.761 0 5-2.239 5-5l1.266-6.309v-27c0-2.761-2.239-5-5-5h-27l-6.67 2.245c-2.761 0-5 2.239-5 5l.766 29.957c0 2.763 2.238 5.001 5 5.001z" fill="#857e87"/><path d="m505.165 491.5v8c0 2.76-2.24 5-5 5h-35c-2.76 0-5-2.24-5-5v-35c0-2.76 2.24-5 5-5h8v22c0 5.52 4.48 10 10 10z" fill="#6f6571"/></g></g><g><path d="m90 82.5c-4.142 0-7.5 3.358-7.5 7.5v90c0 4.142 3.358 7.5 7.5 7.5h90c4.142 0 7.5-3.358 7.5-7.5v-90c0-4.142-3.358-7.5-7.5-7.5zm82.5 90h-75v-75h75z"/><path d="m90 322.5c-4.142 0-7.5 3.358-7.5 7.5v90c0 4.142 3.358 7.5 7.5 7.5h90c4.142 0 7.5-3.358 7.5-7.5v-90c0-4.142-3.358-7.5-7.5-7.5zm82.5 90h-75v-75h75z"/><path d="m211 322.5c-4.142 0-7.5 3.358-7.5 7.5v90c0 4.142 3.358 7.5 7.5 7.5h90c4.142 0 7.5-3.358 7.5-7.5v-90c0-4.142-3.358-7.5-7.5-7.5zm82.5 90h-75v-75h75z"/><path d="m422 322.5h-90c-4.142 0-7.5 3.358-7.5 7.5v90c0 4.142 3.358 7.5 7.5 7.5h90c4.142 0 7.5-3.358 7.5-7.5v-90c0-4.142-3.358-7.5-7.5-7.5zm-7.5 90h-75v-75h75z"/><path d="m292.319 172.5c-4.142 0-7.5 3.358-7.5 7.5s3.358 7.5 7.5 7.5h129.681c4.142 0 7.5-3.358 7.5-7.5v-90c0-4.142-3.358-7.5-7.5-7.5h-212c-4.142 0-7.5 3.358-7.5 7.5v90c0 4.142 3.358 7.5 7.5 7.5h47.319c4.142 0 7.5-3.358 7.5-7.5s-3.358-7.5-7.5-7.5h-39.819v-75h197v75z"/><path d="m82.5 210v90c0 4.142 3.358 7.5 7.5 7.5h332c4.142 0 7.5-3.358 7.5-7.5v-90c0-4.142-3.358-7.5-7.5-7.5h-332c-4.142 0-7.5 3.358-7.5 7.5zm15 7.5h317v75h-317z"/><path d="m499.5 0h-35c-6.893 0-12.5 5.607-12.5 12.5v10h-242.127c-4.142 0-7.5 3.358-7.5 7.5s3.358 7.5 7.5 7.5h242.127v10c0 6.893 5.607 12.5 12.5 12.5h10v193.058c0 4.142 3.358 7.5 7.5 7.5s7.5-3.358 7.5-7.5v-193.058h10c6.893 0 12.5-5.607 12.5-12.5v-35c0-6.893-5.607-12.5-12.5-12.5zm-2.5 45h-30v-30h30z"/><path d="m499.5 452h-10v-163.942c0-4.142-3.358-7.5-7.5-7.5s-7.5 3.358-7.5 7.5v163.942h-10c-6.893 0-12.5 5.607-12.5 12.5v10h-392v-10c0-6.893-5.607-12.5-12.5-12.5h-10v-80.575c0-4.142-3.358-7.5-7.5-7.5s-7.5 3.358-7.5 7.5v80.575h-10c-6.893 0-12.5 5.607-12.5 12.5v35c0 6.893 5.607 12.5 12.5 12.5h35c6.893 0 12.5-5.607 12.5-12.5v-10h392v10c0 6.893 5.607 12.5 12.5 12.5h35c6.893 0 12.5-5.607 12.5-12.5v-35c0-6.893-5.607-12.5-12.5-12.5zm-454.5 45h-30v-30h30zm452 0h-30v-30h30z"/><path d="m12.5 60h10v276.425c0 4.142 3.358 7.5 7.5 7.5s7.5-3.358 7.5-7.5v-276.425h10c6.893 0 12.5-5.607 12.5-12.5v-10h114.873c4.142 0 7.5-3.358 7.5-7.5s-3.358-7.5-7.5-7.5h-114.873v-10c0-6.893-5.607-12.5-12.5-12.5h-35c-6.893 0-12.5 5.607-12.5 12.5v35c0 6.893 5.607 12.5 12.5 12.5zm2.5-45h30v30h-30z"/><path d="m120 127.5h30c4.142 0 7.5-3.358 7.5-7.5s-3.358-7.5-7.5-7.5h-30c-4.142 0-7.5 3.358-7.5 7.5s3.358 7.5 7.5 7.5z"/><path d="m120 157.5h30c4.142 0 7.5-3.358 7.5-7.5s-3.358-7.5-7.5-7.5h-30c-4.142 0-7.5 3.358-7.5 7.5s3.358 7.5 7.5 7.5z"/><path d="m391.5 232.5h-271.5c-4.142 0-7.5 3.358-7.5 7.5s3.358 7.5 7.5 7.5h271.5c4.142 0 7.5-3.358 7.5-7.5s-3.358-7.5-7.5-7.5z"/><path d="m391.5 262.5h-271.5c-4.142 0-7.5 3.358-7.5 7.5s3.358 7.5 7.5 7.5h271.5c4.142 0 7.5-3.358 7.5-7.5s-3.358-7.5-7.5-7.5z"/><path d="m241 367.5h30c4.142 0 7.5-3.358 7.5-7.5s-3.358-7.5-7.5-7.5h-30c-4.142 0-7.5 3.358-7.5 7.5s3.358 7.5 7.5 7.5z"/><path d="m241 397.5h30c4.142 0 7.5-3.358 7.5-7.5s-3.358-7.5-7.5-7.5h-30c-4.142 0-7.5 3.358-7.5 7.5s3.358 7.5 7.5 7.5z"/></g></g></svg>