<?xml version="1.0" encoding="utf-8"?>
<!-- Generator: Adobe Illustrator 25.2.3, SVG Export Plug-In . SVG Version: 6.00 Build 0)  -->
<svg version="1.1" id="_x31__x2C_5" xmlns="http://www.w3.org/2000/svg" xmlns:xlink="http://www.w3.org/1999/xlink" x="0px"
	 y="0px" viewBox="0 0 512 512" style="enable-background:new 0 0 512 512;" xml:space="preserve">
<style type="text/css">
	.st0{fill:#AAAAA9;}
	.st1{fill:#FFFFFF;}
</style>
<g>
	<g id="XMLID_1_">
		<g>
			<path class="st0" d="M480,80v16H32V80c0-14.7,12-26.7,26.7-26.7h394.7C468,53.3,480,65.3,480,80z"/>
			<path class="st1" d="M480,128v304c0,14.7-12,26.7-26.7,26.7H58.7C44,458.7,32,446.7,32,432V128H480z M448,208c0-8.8-7.2-16-16-16
				h-96c-8.8,0-16,7.2-16,16s7.2,16,16,16h96C440.8,224,448,216.8,448,208z M448,293.3c0-8.8-7.2-16-16-16h-96c-8.8,0-16,7.2-16,16
				c0,8.8,7.2,16,16,16h96C440.8,309.3,448,302.2,448,293.3z M448,378.7c0-8.8-7.2-16-16-16h-96c-8.8,0-16,7.2-16,16
				c0,8.8,7.2,16,16,16h96C440.8,394.7,448,387.5,448,378.7z M277.3,240v-32c0-8.8-7.2-16-16-16H80c-8.8,0-16,7.2-16,16v32
				c0,8.8,7.2,16,16,16s16-7.2,16-16v-16h58.7v149.3H144c-8.8,0-16,7.2-16,16c0,8.8,7.2,16,16,16h53.3c8.8,0,16-7.2,16-16
				c0-8.8-7.2-16-16-16h-10.7V224h58.7v16c0,8.8,7.2,16,16,16C270.2,256,277.3,248.8,277.3,240z"/>
			<path d="M512,112v320c0,32.4-26.3,58.7-58.7,58.7H58.7C26.3,490.7,0,464.4,0,432V112c0,8.8,7.2,16,16,16h16v304
				c0,14.7,12,26.7,26.7,26.7h394.7c14.7,0,26.7-12,26.7-26.7V128h16C504.8,128,512,120.8,512,112z"/>
			<path d="M512,80v32c0-8.8-7.2-16-16-16h-16V80c0-14.7-12-26.7-26.7-26.7H58.7C44,53.3,32,65.3,32,80v16H16c-8.8,0-16,7.2-16,16
				V80c0-32.4,26.3-58.7,58.7-58.7h394.7C485.7,21.3,512,47.6,512,80z"/>
			<path d="M496,96c8.8,0,16,7.2,16,16s-7.2,16-16,16h-16V96H496z"/>
			<rect x="32" y="96" width="448" height="32"/>
			<path d="M432,192c8.8,0,16,7.2,16,16s-7.2,16-16,16h-96c-8.8,0-16-7.2-16-16s7.2-16,16-16H432z"/>
			<path d="M432,277.3c8.8,0,16,7.2,16,16c0,8.8-7.2,16-16,16h-96c-8.8,0-16-7.2-16-16c0-8.8,7.2-16,16-16H432z"/>
			<path d="M432,362.7c8.8,0,16,7.2,16,16c0,8.8-7.2,16-16,16h-96c-8.8,0-16-7.2-16-16c0-8.8,7.2-16,16-16H432z"/>
			<path d="M277.3,208v32c0,8.8-7.2,16-16,16c-8.8,0-16-7.2-16-16v-16h-58.7v-10.7c0-8.8-7.2-16-16-16c-8.8,0-16,7.2-16,16V224H96
				v16c0,8.8-7.2,16-16,16s-16-7.2-16-16v-32c0-8.8,7.2-16,16-16h181.3C270.2,192,277.3,199.2,277.3,208z"/>
			<path d="M197.3,373.3c8.8,0,16,7.2,16,16c0,8.8-7.2,16-16,16H144c-8.8,0-16-7.2-16-16c0-8.8,7.2-16,16-16h10.7V384
				c0,8.8,7.2,16,16,16c8.8,0,16-7.2,16-16v-10.7H197.3z"/>
			<path d="M186.7,373.3V384c0,8.8-7.2,16-16,16c-8.8,0-16-7.2-16-16v-10.7H186.7z"/>
			<rect x="154.7" y="224" width="32" height="149.3"/>
			<path d="M186.7,213.3V224h-32v-10.7c0-8.8,7.2-16,16-16C179.5,197.3,186.7,204.5,186.7,213.3z"/>
			<path d="M32,96v32H16c-8.8,0-16-7.2-16-16s7.2-16,16-16H32z"/>
		</g>
		<g>
		</g>
	</g>
</g>
</svg>
