<?xml version="1.0" encoding="utf-8"?>
<!-- Generator: Adobe Illustrator 25.2.3, SVG Export Plug-In . SVG Version: 6.00 Build 0)  -->
<svg version="1.1" id="regular" xmlns="http://www.w3.org/2000/svg" xmlns:xlink="http://www.w3.org/1999/xlink" x="0px" y="0px"
	 viewBox="0 0 512 512" style="enable-background:new 0 0 512 512;" xml:space="preserve">
<style type="text/css">
	.st0{fill:#FFFFFF;}
</style>
<g id="XMLID_1_">
	<g>
		<path class="st0" d="M479.9,383.8c-2.9,0.5-6.1,0.1-55.7,0.2c-10.6,0-18.8-15.8-50.3-47.6c-28.3-27.6-46.7-38.8-63.5-38.8
			c-32.5,0-30.1,26.4-29.9,58.3c0.1,34.6-0.1,23.6,0.1,25.8c-1.9,0.8-7.3,2.2-21.5,2.2C123.7,384,35.6,169.1,32.2,128.1
			c1.2-0.1,17.3-0.1,54.3-0.1c4.6,0,5.1,0,8.5,9.8c20.9,61.5,67.7,152.5,102,152.5c25.7,0,25.7-26.3,25.7-36.3l0-79
			c-1.4-26.1-10.9-39.1-17.2-47l74.8,0.1c0,0.4-0.4,87.4,0.2,108.4c0,29.9,23.8,47.1,60.9,9.5c39.1-44.2,66.2-110.2,67.3-112.9
			c1.6-3.8,3-5.1,8-5.1h52.5h0.2c0,0.1,0,0.1,0,0.2c-4.8,22.4-52.2,93.8-68,115.9c-0.3,0.3-0.5,0.7-0.7,1.1c-7,11.4-12.6,24,1,41.7
			h0c1.2,1.5,4.5,5,9.1,9.9C425.4,311.8,475.4,363.3,479.9,383.8z"/>
		<path d="M510.1,372.6c4.5,15.3,0.4,25.1-3.8,30.7c-4.3,5.8-13,12.7-29.6,12.7h-52.5c-28.5,0-37.6-21.2-72.9-56.9
			c-22.9-22.2-33.9-27.8-38.6-29.2c-0.3,5.9-0.3,15.6-0.2,25.6c-5.7,13.5,20.7,60.4-53.4,60.4C96.6,416,0,170.7,0,127.1
			c0-19.4,12.7-31,34-31h52.5c24.4,0,33,15,38.8,31.3c20.4,60,49.2,107,65.5,124.3c-4.2-67.1,8.2-80.6-11.1-104.8
			c-22.1-27.6-1.7-50.9,19.6-50.9h82.5c34,0,31.5,31.9,30.7,64.6c-0.4,16.8-0.9,39.4-0.1,69c23.8-20.9,55.5-79.9,66.8-108.6
			c6.7-16.2,20.1-25,37.7-25h52.5c12.6,0,21.9,3.9,27.7,11.6c3.9,5.2,7.6,14.3,3.5,28.4c0,0.1,0,0.1,0,0.2
			c-7.6,30.9-59,107.9-72.5,125.8h0c-0.5,0.9-1.6,2.5-2.2,3.7C430,272.4,498.4,335.9,510.1,372.6z M424.1,384
			c49.6-0.1,52.8,0.2,55.7-0.2c-4.4-20.5-54.5-72-69.1-87c-4.7-4.9-7.9-8.4-9.1-9.9h0c-13.6-17.7-7.9-30.3-1-41.7
			c0.2-0.4,0.5-0.7,0.7-1.1c15.8-22.2,63.2-93.6,68-115.9c0-0.1,0-0.1,0-0.2h-0.2h-52.5c-5,0-6.4,1.3-8,5.1
			c-1.1,2.7-28.2,68.7-67.3,112.9c-37.1,37.5-60.9,20.4-60.9-9.5c-0.6-21.1-0.2-108.1-0.2-108.4l-74.8-0.1
			c6.2,7.9,15.8,20.9,17.2,47l0,79c0,9.9,0,36.3-25.7,36.3c-34.2,0-81.1-91-102-152.5c-3.4-9.8-3.9-9.8-8.5-9.8
			c-37,0-53.1,0-54.3,0.1C35.6,169.1,123.7,384,259.1,384c14.2,0,19.6-1.5,21.5-2.2c-0.2-2.2,0,8.8-0.1-25.8
			c-0.3-31.9-2.7-58.3,29.9-58.3c16.7,0,35.1,11.3,63.5,38.8C405.3,368.2,413.6,384,424.1,384z"/>
	</g>
	<g>
	</g>
</g>
</svg>
